<?xml version="1.0" encoding="UTF-8"?>
<svg width="1254" height="1254" viewBox="0 0 1254 1254" xmlns="http://www.w3.org/2000/svg">
  <title>NOVAQ Logo</title>
  <path d="M 579.00 539.00 L 577.00 541.00 L 577.00 544.00 L 578.00 545.00 L 578.00 546.00 L 579.00 547.00 L 579.00 548.00 L 580.00 549.00 L 580.00 550.00 L 581.00 551.00 L 581.00 552.00 L 582.00 553.00 L 582.00 554.00 L 583.00 555.00 L 583.00 556.00 L 584.00 557.00 L 584.00 558.00 L 585.00 559.00 L 585.00 560.00 L 586.00 561.00 L 586.00 562.00 L 587.00 563.00 L 587.00 564.00 L 588.00 565.00 L 588.00 566.00 L 589.00 567.00 L 589.00 568.00 L 590.00 569.00 L 590.00 570.00 L 591.00 571.00 L 591.00 572.00 L 592.00 573.00 L 592.00 574.00 L 593.00 575.00 L 593.00 576.00 L 594.00 577.00 L 594.00 578.00 L 595.00 579.00 L 595.00 580.00 L 596.00 581.00 L 596.00 582.00 L 597.00 583.00 L 597.00 584.00 L 598.00 585.00 L 598.00 586.00 L 599.00 587.00 L 599.00 588.00 L 600.00 589.00 L 600.00 590.00 L 601.00 591.00 L 601.00 592.00 L 602.00 593.00 L 602.00 594.00 L 603.00 595.00 L 603.00 596.00 L 604.00 597.00 L 604.00 598.00 L 605.00 599.00 L 605.00 600.00 L 606.00 601.00 L 606.00 602.00 L 607.00 603.00 L 607.00 604.00 L 608.00 605.00 L 608.00 606.00 L 609.00 607.00 L 609.00 608.00 L 610.00 609.00 L 610.00 610.00 L 611.00 611.00 L 611.00 612.00 L 612.00 613.00 L 612.00 614.00 L 613.00 615.00 L 613.00 616.00 L 614.00 617.00 L 614.00 618.00 L 615.00 619.00 L 615.00 620.00 L 616.00 621.00 L 616.00 622.00 L 617.00 623.00 L 617.00 624.00 L 618.00 625.00 L 618.00 626.00 L 619.00 627.00 L 619.00 628.00 L 620.00 629.00 L 620.00 630.00 L 621.00 631.00 L 621.00 632.00 L 622.00 633.00 L 622.00 634.00 L 623.00 635.00 L 623.00 636.00 L 624.00 637.00 L 624.00 638.00 L 625.00 639.00 L 625.00 640.00 L 626.00 641.00 L 626.00 642.00 L 627.00 643.00 L 627.00 644.00 L 628.00 645.00 L 628.00 646.00 L 629.00 647.00 L 629.00 648.00 L 630.00 649.00 L 630.00 650.00 L 631.00 651.00 L 631.00 652.00 L 632.00 653.00 L 632.00 654.00 L 633.00 655.00 L 633.00 656.00 L 634.00 657.00 L 634.00 658.00 L 635.00 659.00 L 635.00 660.00 L 636.00 661.00 L 636.00 662.00 L 637.00 663.00 L 637.00 664.00 L 638.00 665.00 L 638.00 666.00 L 639.00 667.00 L 639.00 668.00 L 640.00 669.00 L 640.00 670.00 L 641.00 671.00 L 641.00 672.00 L 642.00 673.00 L 642.00 674.00 L 643.00 675.00 L 643.00 676.00 L 644.00 677.00 L 644.00 678.00 L 645.00 679.00 L 645.00 680.00 L 646.00 681.00 L 646.00 682.00 L 647.00 683.00 L 647.00 684.00 L 648.00 685.00 L 648.00 686.00 L 649.00 687.00 L 649.00 688.00 L 650.00 689.00 L 650.00 690.00 L 651.00 691.00 L 651.00 692.00 L 652.00 693.00 L 653.00 696.00 L 656.00 699.00 L 666.00 699.00 L 667.00 698.00 L 668.00 698.00 L 669.00 697.00 L 669.00 696.00 L 670.00 695.00 L 670.00 694.00 L 671.00 693.00 L 671.00 692.00 L 672.00 691.00 L 672.00 690.00 L 673.00 689.00 L 673.00 688.00 L 674.00 687.00 L 674.00 686.00 L 675.00 685.00 L 675.00 684.00 L 678.00 679.00 L 678.00 677.00 L 680.00 675.00 L 680.00 674.00 L 681.00 673.00 L 681.00 672.00 L 682.00 671.00 L 682.00 670.00 L 683.00 669.00 L 683.00 668.00 L 684.00 667.00 L 684.00 666.00 L 685.00 665.00 L 685.00 664.00 L 686.00 663.00 L 686.00 662.00 L 687.00 661.00 L 687.00 660.00 L 688.00 659.00 L 688.00 658.00 L 689.00 657.00 L 689.00 656.00 L 692.00 651.00 L 692.00 649.00 L 693.00 648.00 L 693.00 647.00 L 694.00 646.00 L 694.00 645.00 L 695.00 644.00 L 695.00 643.00 L 696.00 642.00 L 696.00 641.00 L 697.00 640.00 L 697.00 639.00 L 698.00 638.00 L 698.00 637.00 L 699.00 636.00 L 699.00 635.00 L 700.00 634.00 L 700.00 633.00 L 701.00 632.00 L 701.00 631.00 L 702.00 630.00 L 702.00 629.00 L 703.00 628.00 L 703.00 627.00 L 704.00 626.00 L 704.00 625.00 L 705.00 624.00 L 705.00 623.00 L 706.00 622.00 L 706.00 621.00 L 707.00 620.00 L 707.00 619.00 L 708.00 618.00 L 708.00 617.00 L 709.00 616.00 L 709.00 615.00 L 710.00 614.00 L 710.00 613.00 L 711.00 612.00 L 711.00 611.00 L 712.00 610.00 L 712.00 609.00 L 713.00 608.00 L 713.00 607.00 L 714.00 606.00 L 714.00 605.00 L 715.00 604.00 L 715.00 603.00 L 716.00 602.00 L 716.00 601.00 L 717.00 600.00 L 717.00 599.00 L 718.00 598.00 L 718.00 597.00 L 719.00 596.00 L 719.00 595.00 L 720.00 594.00 L 720.00 593.00 L 721.00 592.00 L 721.00 591.00 L 722.00 590.00 L 722.00 589.00 L 725.00 584.00 L 725.00 582.00 L 726.00 581.00 L 727.00 578.00 L 729.00 576.00 L 729.00 574.00 L 731.00 572.00 L 731.00 570.00 L 732.00 569.00 L 732.00 568.00 L 733.00 567.00 L 733.00 566.00 L 734.00 565.00 L 734.00 564.00 L 735.00 563.00 L 735.00 562.00 L 736.00 561.00 L 736.00 560.00 L 737.00 559.00 L 737.00 558.00 L 738.00 557.00 L 738.00 556.00 L 739.00 555.00 L 739.00 554.00 L 740.00 553.00 L 740.00 552.00 L 741.00 551.00 L 741.00 550.00 L 742.00 549.00 L 743.00 546.00 L 745.00 544.00 L 745.00 541.00 L 743.00 539.00 L 727.00 539.00 L 724.00 542.00 L 724.00 544.00 L 723.00 545.00 L 723.00 546.00 L 722.00 547.00 L 722.00 548.00 L 721.00 549.00 L 721.00 550.00 L 720.00 551.00 L 720.00 552.00 L 719.00 553.00 L 719.00 554.00 L 718.00 555.00 L 718.00 556.00 L 717.00 557.00 L 717.00 558.00 L 716.00 559.00 L 716.00 560.00 L 715.00 561.00 L 715.00 562.00 L 714.00 563.00 L 714.00 564.00 L 713.00 565.00 L 713.00 566.00 L 712.00 567.00 L 712.00 568.00 L 711.00 569.00 L 711.00 570.00 L 710.00 571.00 L 710.00 572.00 L 709.00 573.00 L 709.00 574.00 L 706.00 579.00 L 706.00 581.00 L 705.00 582.00 L 705.00 583.00 L 704.00 584.00 L 703.00 587.00 L 701.00 589.00 L 701.00 590.00 L 700.00 591.00 L 700.00 592.00 L 699.00 593.00 L 699.00 594.00 L 698.00 595.00 L 698.00 596.00 L 695.00 601.00 L 695.00 603.00 L 694.00 604.00 L 694.00 605.00 L 693.00 606.00 L 693.00 607.00 L 692.00 608.00 L 692.00 609.00 L 691.00 610.00 L 691.00 611.00 L 690.00 612.00 L 690.00 613.00 L 689.00 614.00 L 689.00 615.00 L 688.00 616.00 L 688.00 617.00 L 687.00 618.00 L 687.00 619.00 L 686.00 620.00 L 686.00 621.00 L 685.00 622.00 L 685.00 623.00 L 684.00 624.00 L 684.00 625.00 L 683.00 626.00 L 683.00 627.00 L 682.00 628.00 L 682.00 629.00 L 681.00 630.00 L 681.00 631.00 L 680.00 632.00 L 680.00 633.00 L 679.00 634.00 L 679.00 635.00 L 678.00 636.00 L 678.00 637.00 L 677.00 638.00 L 677.00 639.00 L 676.00 640.00 L 676.00 641.00 L 675.00 642.00 L 675.00 643.00 L 674.00 644.00 L 674.00 645.00 L 673.00 646.00 L 673.00 647.00 L 672.00 648.00 L 672.00 649.00 L 671.00 650.00 L 671.00 651.00 L 670.00 652.00 L 670.00 653.00 L 669.00 654.00 L 669.00 655.00 L 668.00 656.00 L 668.00 657.00 L 667.00 658.00 L 667.00 659.00 L 666.00 660.00 L 666.00 661.00 L 665.00 662.00 L 665.00 663.00 L 664.00 664.00 L 663.00 667.00 L 661.00 669.00 L 660.00 668.00 L 660.00 667.00 L 659.00 666.00 L 659.00 665.00 L 658.00 664.00 L 657.00 661.00 L 655.00 659.00 L 655.00 657.00 L 653.00 655.00 L 653.00 654.00 L 652.00 653.00 L 652.00 651.00 L 651.00 650.00 L 651.00 649.00 L 650.00 648.00 L 650.00 647.00 L 649.00 646.00 L 648.00 643.00 L 646.00 641.00 L 646.00 640.00 L 645.00 639.00 L 645.00 637.00 L 644.00 636.00 L 644.00 635.00 L 643.00 634.00 L 643.00 633.00 L 642.00 632.00 L 641.00 629.00 L 639.00 627.00 L 639.00 626.00 L 638.00 625.00 L 638.00 624.00 L 637.00 623.00 L 637.00 622.00 L 634.00 617.00 L 634.00 615.00 L 633.00 614.00 L 633.00 613.00 L 632.00 612.00 L 632.00 611.00 L 631.00 610.00 L 630.00 607.00 L 628.00 605.00 L 628.00 604.00 L 626.00 601.00 L 626.00 599.00 L 625.00 598.00 L 625.00 597.00 L 623.00 595.00 L 623.00 594.00 L 621.00 591.00 L 621.00 589.00 L 620.00 588.00 L 620.00 587.00 L 619.00 586.00 L 619.00 585.00 L 618.00 584.00 L 618.00 583.00 L 617.00 582.00 L 617.00 581.00 L 616.00 580.00 L 616.00 579.00 L 615.00 578.00 L 615.00 577.00 L 614.00 576.00 L 614.00 575.00 L 613.00 574.00 L 613.00 573.00 L 612.00 572.00 L 612.00 571.00 L 611.00 570.00 L 611.00 569.00 L 610.00 568.00 L 610.00 567.00 L 609.00 566.00 L 609.00 565.00 L 608.00 564.00 L 608.00 563.00 L 607.00 562.00 L 607.00 561.00 L 606.00 560.00 L 606.00 559.00 L 605.00 558.00 L 605.00 557.00 L 604.00 556.00 L 604.00 555.00 L 603.00 554.00 L 603.00 553.00 L 602.00 552.00 L 602.00 551.00 L 601.00 550.00 L 601.00 549.00 L 600.00 548.00 L 600.00 547.00 L 599.00 546.00 L 599.00 545.00 L 598.00 544.00 L 597.00 541.00 L 595.00 539.00 Z M 147.00 540.00 L 147.00 541.00 L 145.00 544.00 L 145.00 582.00 L 146.00 583.00 L 146.00 591.00 L 145.00 592.00 L 145.00 593.00 L 146.00 594.00 L 146.00 609.00 L 145.00 610.00 L 145.00 663.00 L 146.00 664.00 L 146.00 673.00 L 145.00 674.00 L 145.00 682.00 L 146.00 683.00 L 146.00 691.00 L 145.00 692.00 L 145.00 695.00 L 146.00 696.00 L 146.00 697.00 L 149.00 699.00 L 161.00 699.00 L 162.00 698.00 L 163.00 698.00 L 163.00 697.00 L 164.00 696.00 L 164.00 572.00 L 165.00 571.00 L 170.00 576.00 L 170.00 577.00 L 178.00 585.00 L 178.00 586.00 L 184.00 592.00 L 184.00 593.00 L 193.00 602.00 L 193.00 603.00 L 200.00 610.00 L 200.00 611.00 L 210.00 621.00 L 210.00 622.00 L 217.00 629.00 L 217.00 630.00 L 226.00 639.00 L 226.00 640.00 L 232.00 646.00 L 232.00 647.00 L 241.00 656.00 L 241.00 657.00 L 248.00 664.00 L 248.00 665.00 L 256.00 673.00 L 256.00 674.00 L 262.00 680.00 L 262.00 681.00 L 271.00 690.00 L 271.00 691.00 L 279.00 699.00 L 291.00 699.00 L 292.00 698.00 L 293.00 698.00 L 295.00 696.00 L 295.00 695.00 L 296.00 694.00 L 296.00 542.00 L 293.00 539.00 L 279.00 539.00 L 277.00 542.00 L 277.00 665.00 L 276.00 666.00 L 269.00 659.00 L 269.00 658.00 L 260.00 649.00 L 260.00 648.00 L 252.00 640.00 L 252.00 639.00 L 245.00 632.00 L 245.00 631.00 L 236.00 622.00 L 236.00 621.00 L 230.00 615.00 L 230.00 614.00 L 219.00 603.00 L 219.00 602.00 L 213.00 596.00 L 213.00 595.00 L 205.00 587.00 L 205.00 586.00 L 199.00 580.00 L 199.00 579.00 L 190.00 570.00 L 190.00 569.00 L 183.00 562.00 L 183.00 561.00 L 175.00 553.00 L 175.00 552.00 L 167.00 544.00 L 167.00 543.00 L 163.00 539.00 L 149.00 539.00 L 148.00 540.00 Z M 840.00 540.00 L 840.00 541.00 L 839.00 542.00 L 839.00 543.00 L 838.00 544.00 L 838.00 545.00 L 837.00 546.00 L 837.00 547.00 L 836.00 548.00 L 836.00 549.00 L 835.00 550.00 L 835.00 551.00 L 834.00 552.00 L 834.00 553.00 L 833.00 554.00 L 833.00 555.00 L 832.00 556.00 L 832.00 557.00 L 831.00 558.00 L 831.00 559.00 L 830.00 560.00 L 829.00 563.00 L 827.00 565.00 L 827.00 567.00 L 826.00 568.00 L 825.00 571.00 L 823.00 573.00 L 823.00 574.00 L 822.00 575.00 L 822.00 576.00 L 819.00 581.00 L 819.00 583.00 L 818.00 584.00 L 817.00 587.00 L 815.00 589.00 L 815.00 590.00 L 814.00 591.00 L 814.00 592.00 L 813.00 593.00 L 813.00 594.00 L 812.00 595.00 L 812.00 596.00 L 811.00 597.00 L 811.00 598.00 L 810.00 599.00 L 810.00 600.00 L 809.00 601.00 L 809.00 602.00 L 808.00 603.00 L 808.00 604.00 L 807.00 605.00 L 807.00 606.00 L 806.00 607.00 L 806.00 608.00 L 805.00 609.00 L 805.00 610.00 L 804.00 611.00 L 804.00 612.00 L 803.00 613.00 L 803.00 614.00 L 802.00 615.00 L 802.00 616.00 L 801.00 617.00 L 801.00 618.00 L 800.00 619.00 L 800.00 620.00 L 799.00 621.00 L 799.00 622.00 L 798.00 623.00 L 798.00 624.00 L 797.00 625.00 L 797.00 626.00 L 796.00 627.00 L 796.00 628.00 L 795.00 629.00 L 795.00 630.00 L 794.00 631.00 L 794.00 632.00 L 793.00 633.00 L 793.00 634.00 L 792.00 635.00 L 792.00 636.00 L 791.00 637.00 L 790.00 640.00 L 788.00 642.00 L 788.00 644.00 L 787.00 645.00 L 787.00 646.00 L 786.00 647.00 L 785.00 650.00 L 783.00 652.00 L 783.00 653.00 L 782.00 654.00 L 782.00 655.00 L 781.00 656.00 L 781.00 657.00 L 778.00 662.00 L 778.00 664.00 L 776.00 666.00 L 776.00 667.00 L 775.00 668.00 L 775.00 669.00 L 774.00 670.00 L 774.00 671.00 L 773.00 672.00 L 773.00 673.00 L 770.00 678.00 L 770.00 680.00 L 769.00 681.00 L 768.00 684.00 L 766.00 686.00 L 766.00 687.00 L 763.00 692.00 L 763.00 697.00 L 765.00 699.00 L 779.00 699.00 L 782.00 697.00 L 782.00 696.00 L 783.00 695.00 L 783.00 694.00 L 784.00 693.00 L 784.00 692.00 L 785.00 691.00 L 785.00 690.00 L 786.00 689.00 L 786.00 688.00 L 787.00 687.00 L 787.00 686.00 L 788.00 685.00 L 788.00 684.00 L 789.00 683.00 L 789.00 682.00 L 790.00 681.00 L 790.00 680.00 L 791.00 679.00 L 791.00 678.00 L 792.00 677.00 L 792.00 676.00 L 793.00 675.00 L 793.00 674.00 L 794.00 673.00 L 794.00 672.00 L 795.00 671.00 L 795.00 670.00 L 796.00 669.00 L 796.00 668.00 L 797.00 667.00 L 797.00 666.00 L 798.00 665.00 L 798.00 664.00 L 799.00 663.00 L 799.00 662.00 L 800.00 661.00 L 800.00 660.00 L 801.00 659.00 L 801.00 658.00 L 802.00 657.00 L 802.00 656.00 L 803.00 655.00 L 803.00 654.00 L 804.00 653.00 L 804.00 652.00 L 805.00 651.00 L 805.00 650.00 L 806.00 649.00 L 806.00 648.00 L 807.00 647.00 L 807.00 646.00 L 808.00 645.00 L 808.00 644.00 L 809.00 643.00 L 809.00 642.00 L 810.00 641.00 L 810.00 640.00 L 811.00 639.00 L 811.00 638.00 L 812.00 637.00 L 812.00 636.00 L 813.00 635.00 L 813.00 634.00 L 814.00 633.00 L 814.00 632.00 L 815.00 631.00 L 815.00 630.00 L 816.00 629.00 L 816.00 628.00 L 817.00 627.00 L 817.00 626.00 L 818.00 625.00 L 818.00 624.00 L 819.00 623.00 L 819.00 622.00 L 820.00 621.00 L 820.00 620.00 L 821.00 619.00 L 821.00 618.00 L 822.00 617.00 L 822.00 616.00 L 823.00 615.00 L 823.00 614.00 L 824.00 613.00 L 824.00 612.00 L 825.00 611.00 L 825.00 610.00 L 826.00 609.00 L 826.00 608.00 L 827.00 607.00 L 827.00 606.00 L 828.00 605.00 L 828.00 604.00 L 829.00 603.00 L 829.00 602.00 L 830.00 601.00 L 830.00 600.00 L 831.00 599.00 L 831.00 598.00 L 832.00 597.00 L 833.00 594.00 L 835.00 592.00 L 835.00 590.00 L 836.00 589.00 L 836.00 588.00 L 837.00 587.00 L 837.00 586.00 L 838.00 585.00 L 838.00 584.00 L 839.00 583.00 L 839.00 582.00 L 840.00 581.00 L 841.00 578.00 L 843.00 576.00 L 843.00 574.00 L 844.00 573.00 L 844.00 572.00 L 846.00 570.00 L 847.00 570.00 L 848.00 571.00 L 848.00 572.00 L 849.00 573.00 L 849.00 574.00 L 850.00 575.00 L 850.00 576.00 L 851.00 577.00 L 851.00 578.00 L 852.00 579.00 L 852.00 580.00 L 853.00 581.00 L 853.00 582.00 L 854.00 583.00 L 854.00 584.00 L 855.00 585.00 L 855.00 586.00 L 856.00 587.00 L 856.00 588.00 L 857.00 589.00 L 857.00 590.00 L 858.00 591.00 L 858.00 592.00 L 859.00 593.00 L 859.00 594.00 L 860.00 595.00 L 860.00 596.00 L 861.00 597.00 L 861.00 598.00 L 862.00 599.00 L 862.00 600.00 L 863.00 601.00 L 863.00 602.00 L 864.00 603.00 L 864.00 604.00 L 865.00 605.00 L 865.00 606.00 L 868.00 611.00 L 868.00 613.00 L 869.00 614.00 L 869.00 615.00 L 870.00 616.00 L 871.00 619.00 L 873.00 621.00 L 873.00 622.00 L 874.00 623.00 L 874.00 624.00 L 875.00 625.00 L 875.00 626.00 L 878.00 631.00 L 878.00 633.00 L 879.00 634.00 L 879.00 635.00 L 881.00 637.00 L 881.00 638.00 L 883.00 641.00 L 883.00 643.00 L 884.00 644.00 L 884.00 645.00 L 885.00 646.00 L 885.00 647.00 L 886.00 648.00 L 886.00 649.00 L 887.00 650.00 L 887.00 651.00 L 888.00 652.00 L 888.00 653.00 L 889.00 654.00 L 889.00 655.00 L 890.00 656.00 L 890.00 657.00 L 891.00 658.00 L 891.00 659.00 L 892.00 660.00 L 892.00 661.00 L 893.00 662.00 L 893.00 663.00 L 894.00 664.00 L 894.00 665.00 L 895.00 666.00 L 895.00 667.00 L 896.00 668.00 L 896.00 669.00 L 897.00 670.00 L 897.00 671.00 L 898.00 672.00 L 898.00 673.00 L 899.00 674.00 L 899.00 675.00 L 900.00 676.00 L 900.00 677.00 L 901.00 678.00 L 901.00 679.00 L 902.00 680.00 L 902.00 681.00 L 903.00 682.00 L 903.00 683.00 L 904.00 684.00 L 904.00 685.00 L 905.00 686.00 L 905.00 687.00 L 906.00 688.00 L 906.00 689.00 L 907.00 690.00 L 907.00 691.00 L 908.00 692.00 L 908.00 693.00 L 909.00 694.00 L 910.00 697.00 L 913.00 699.00 L 927.00 699.00 L 928.00 698.00 L 929.00 698.00 L 929.00 697.00 L 930.00 696.00 L 930.00 694.00 L 929.00 693.00 L 929.00 692.00 L 928.00 691.00 L 928.00 690.00 L 927.00 689.00 L 927.00 688.00 L 926.00 687.00 L 926.00 686.00 L 925.00 685.00 L 925.00 684.00 L 924.00 683.00 L 924.00 682.00 L 923.00 681.00 L 923.00 680.00 L 922.00 679.00 L 922.00 678.00 L 921.00 677.00 L 921.00 676.00 L 920.00 675.00 L 920.00 674.00 L 919.00 673.00 L 919.00 672.00 L 918.00 671.00 L 918.00 670.00 L 917.00 669.00 L 917.00 668.00 L 916.00 667.00 L 916.00 666.00 L 915.00 665.00 L 915.00 664.00 L 914.00 663.00 L 914.00 662.00 L 913.00 661.00 L 913.00 660.00 L 912.00 659.00 L 912.00 658.00 L 911.00 657.00 L 911.00 656.00 L 910.00 655.00 L 910.00 654.00 L 909.00 653.00 L 909.00 652.00 L 908.00 651.00 L 908.00 650.00 L 907.00 649.00 L 907.00 648.00 L 906.00 647.00 L 906.00 646.00 L 905.00 645.00 L 905.00 644.00 L 904.00 643.00 L 904.00 642.00 L 903.00 641.00 L 903.00 640.00 L 902.00 639.00 L 902.00 638.00 L 901.00 637.00 L 901.00 636.00 L 900.00 635.00 L 900.00 634.00 L 899.00 633.00 L 899.00 632.00 L 898.00 631.00 L 898.00 630.00 L 897.00 629.00 L 897.00 628.00 L 896.00 627.00 L 896.00 626.00 L 895.00 625.00 L 895.00 624.00 L 894.00 623.00 L 894.00 622.00 L 893.00 621.00 L 893.00 620.00 L 892.00 619.00 L 892.00 618.00 L 891.00 617.00 L 891.00 616.00 L 890.00 615.00 L 890.00 614.00 L 889.00 613.00 L 889.00 612.00 L 888.00 611.00 L 888.00 610.00 L 887.00 609.00 L 887.00 608.00 L 886.00 607.00 L 886.00 606.00 L 885.00 605.00 L 885.00 604.00 L 884.00 603.00 L 884.00 602.00 L 883.00 601.00 L 883.00 600.00 L 882.00 599.00 L 882.00 598.00 L 881.00 597.00 L 881.00 596.00 L 880.00 595.00 L 880.00 594.00 L 879.00 593.00 L 879.00 592.00 L 878.00 591.00 L 878.00 590.00 L 877.00 589.00 L 877.00 588.00 L 876.00 587.00 L 876.00 586.00 L 875.00 585.00 L 875.00 584.00 L 874.00 583.00 L 874.00 582.00 L 873.00 581.00 L 873.00 580.00 L 872.00 579.00 L 872.00 578.00 L 871.00 577.00 L 871.00 576.00 L 870.00 575.00 L 870.00 574.00 L 869.00 573.00 L 869.00 572.00 L 868.00 571.00 L 868.00 570.00 L 867.00 569.00 L 867.00 568.00 L 866.00 567.00 L 866.00 566.00 L 865.00 565.00 L 865.00 564.00 L 864.00 563.00 L 864.00 562.00 L 863.00 561.00 L 863.00 560.00 L 862.00 559.00 L 862.00 558.00 L 861.00 557.00 L 861.00 556.00 L 860.00 555.00 L 860.00 554.00 L 859.00 553.00 L 859.00 552.00 L 858.00 551.00 L 858.00 550.00 L 857.00 549.00 L 857.00 548.00 L 856.00 547.00 L 856.00 546.00 L 855.00 545.00 L 855.00 544.00 L 854.00 543.00 L 853.00 540.00 L 852.00 539.00 L 850.00 539.00 L 849.00 538.00 L 846.00 538.00 L 845.00 539.00 L 842.00 539.00 L 841.00 540.00 Z M 995.00 554.00 L 982.00 567.00 L 982.00 568.00 L 979.00 571.00 L 979.00 572.00 L 977.00 574.00 L 976.00 577.00 L 974.00 579.00 L 974.00 580.00 L 971.00 585.00 L 971.00 587.00 L 969.00 590.00 L 969.00 592.00 L 968.00 593.00 L 968.00 596.00 L 967.00 597.00 L 967.00 600.00 L 966.00 601.00 L 966.00 605.00 L 965.00 606.00 L 965.00 630.00 L 966.00 631.00 L 966.00 636.00 L 967.00 637.00 L 967.00 640.00 L 968.00 641.00 L 968.00 643.00 L 969.00 644.00 L 969.00 646.00 L 970.00 647.00 L 970.00 649.00 L 971.00 650.00 L 971.00 651.00 L 972.00 652.00 L 972.00 653.00 L 973.00 654.00 L 973.00 655.00 L 974.00 656.00 L 974.00 657.00 L 975.00 658.00 L 976.00 661.00 L 978.00 663.00 L 978.00 664.00 L 980.00 666.00 L 980.00 667.00 L 984.00 671.00 L 984.00 672.00 L 993.00 681.00 L 994.00 681.00 L 998.00 685.00 L 999.00 685.00 L 1002.00 688.00 L 1005.00 689.00 L 1007.00 691.00 L 1008.00 691.00 L 1009.00 692.00 L 1010.00 692.00 L 1011.00 693.00 L 1012.00 693.00 L 1017.00 696.00 L 1019.00 696.00 L 1020.00 697.00 L 1022.00 697.00 L 1023.00 698.00 L 1025.00 698.00 L 1026.00 699.00 L 1029.00 699.00 L 1030.00 700.00 L 1033.00 700.00 L 1034.00 701.00 L 1040.00 701.00 L 1041.00 702.00 L 1062.00 702.00 L 1063.00 701.00 L 1068.00 701.00 L 1069.00 700.00 L 1072.00 700.00 L 1073.00 699.00 L 1076.00 699.00 L 1077.00 698.00 L 1079.00 698.00 L 1080.00 697.00 L 1082.00 697.00 L 1085.00 695.00 L 1089.00 695.00 L 1098.00 704.00 L 1099.00 704.00 L 1116.00 720.00 L 1118.00 720.00 L 1119.00 721.00 L 1136.00 721.00 L 1137.00 720.00 L 1138.00 720.00 L 1139.00 719.00 L 1139.00 713.00 L 1135.00 709.00 L 1134.00 709.00 L 1128.00 703.00 L 1127.00 703.00 L 1121.00 697.00 L 1120.00 697.00 L 1113.00 690.00 L 1112.00 690.00 L 1106.00 684.00 L 1118.00 672.00 L 1118.00 671.00 L 1122.00 667.00 L 1122.00 666.00 L 1124.00 664.00 L 1125.00 661.00 L 1127.00 659.00 L 1127.00 658.00 L 1128.00 657.00 L 1128.00 656.00 L 1129.00 655.00 L 1129.00 654.00 L 1132.00 649.00 L 1132.00 647.00 L 1133.00 646.00 L 1133.00 644.00 L 1134.00 643.00 L 1134.00 641.00 L 1135.00 640.00 L 1135.00 636.00 L 1136.00 635.00 L 1136.00 630.00 L 1137.00 629.00 L 1137.00 608.00 L 1136.00 607.00 L 1136.00 601.00 L 1135.00 600.00 L 1135.00 597.00 L 1134.00 596.00 L 1134.00 593.00 L 1133.00 592.00 L 1133.00 590.00 L 1131.00 587.00 L 1131.00 585.00 L 1130.00 584.00 L 1130.00 583.00 L 1129.00 582.00 L 1128.00 579.00 L 1126.00 577.00 L 1126.00 576.00 L 1125.00 575.00 L 1124.00 572.00 L 1121.00 569.00 L 1121.00 568.00 L 1116.00 563.00 L 1116.00 562.00 L 1110.00 556.00 L 1109.00 556.00 L 1105.00 552.00 L 1104.00 552.00 L 1101.00 549.00 L 1100.00 549.00 L 1098.00 547.00 L 1097.00 547.00 L 1096.00 546.00 L 1095.00 546.00 L 1094.00 545.00 L 1093.00 545.00 L 1092.00 544.00 L 1091.00 544.00 L 1090.00 543.00 L 1089.00 543.00 L 1084.00 540.00 L 1082.00 540.00 L 1081.00 539.00 L 1079.00 539.00 L 1078.00 538.00 L 1076.00 538.00 L 1075.00 537.00 L 1072.00 537.00 L 1071.00 536.00 L 1067.00 536.00 L 1066.00 535.00 L 1058.00 535.00 L 1057.00 534.00 L 1046.00 534.00 L 1045.00 535.00 L 1036.00 535.00 L 1035.00 536.00 L 1032.00 536.00 L 1031.00 537.00 L 1028.00 537.00 L 1027.00 538.00 L 1024.00 538.00 L 1021.00 540.00 L 1019.00 540.00 L 1018.00 541.00 L 1016.00 541.00 L 1015.00 542.00 L 1014.00 542.00 L 1013.00 543.00 L 1012.00 543.00 L 1011.00 544.00 L 1008.00 545.00 L 1006.00 547.00 L 1005.00 547.00 L 1004.00 548.00 L 1003.00 548.00 L 1001.00 550.00 L 1000.00 550.00 L 996.00 554.00 Z M 1049.00 552.00 L 1054.00 552.00 L 1055.00 553.00 L 1063.00 553.00 L 1064.00 554.00 L 1067.00 554.00 L 1068.00 555.00 L 1071.00 555.00 L 1072.00 556.00 L 1074.00 556.00 L 1075.00 557.00 L 1077.00 557.00 L 1078.00 558.00 L 1079.00 558.00 L 1080.00 559.00 L 1081.00 559.00 L 1082.00 560.00 L 1083.00 560.00 L 1084.00 561.00 L 1087.00 562.00 L 1089.00 564.00 L 1090.00 564.00 L 1094.00 568.00 L 1095.00 568.00 L 1103.00 576.00 L 1103.00 577.00 L 1106.00 580.00 L 1106.00 581.00 L 1110.00 586.00 L 1110.00 587.00 L 1113.00 592.00 L 1113.00 594.00 L 1115.00 597.00 L 1115.00 600.00 L 1116.00 601.00 L 1116.00 605.00 L 1117.00 606.00 L 1117.00 612.00 L 1118.00 613.00 L 1118.00 623.00 L 1117.00 624.00 L 1117.00 630.00 L 1116.00 631.00 L 1116.00 635.00 L 1115.00 636.00 L 1115.00 638.00 L 1114.00 639.00 L 1114.00 641.00 L 1111.00 646.00 L 1111.00 648.00 L 1110.00 649.00 L 1110.00 650.00 L 1108.00 652.00 L 1107.00 655.00 L 1103.00 659.00 L 1103.00 660.00 L 1093.00 670.00 L 1092.00 670.00 L 1087.00 674.00 L 1086.00 674.00 L 1085.00 675.00 L 1084.00 675.00 L 1083.00 676.00 L 1082.00 676.00 L 1081.00 677.00 L 1080.00 677.00 L 1075.00 680.00 L 1073.00 680.00 L 1072.00 681.00 L 1070.00 681.00 L 1069.00 682.00 L 1066.00 682.00 L 1065.00 683.00 L 1059.00 683.00 L 1058.00 684.00 L 1045.00 684.00 L 1044.00 683.00 L 1038.00 683.00 L 1037.00 682.00 L 1034.00 682.00 L 1033.00 681.00 L 1030.00 681.00 L 1027.00 679.00 L 1025.00 679.00 L 1024.00 678.00 L 1023.00 678.00 L 1022.00 677.00 L 1021.00 677.00 L 1020.00 676.00 L 1019.00 676.00 L 1018.00 675.00 L 1015.00 674.00 L 1013.00 672.00 L 1012.00 672.00 L 1010.00 670.00 L 1009.00 670.00 L 997.00 658.00 L 997.00 657.00 L 993.00 652.00 L 993.00 651.00 L 992.00 650.00 L 992.00 649.00 L 991.00 648.00 L 991.00 647.00 L 988.00 642.00 L 988.00 640.00 L 986.00 637.00 L 986.00 634.00 L 985.00 633.00 L 985.00 629.00 L 984.00 628.00 L 984.00 609.00 L 985.00 608.00 L 985.00 604.00 L 986.00 603.00 L 986.00 600.00 L 987.00 599.00 L 987.00 597.00 L 989.00 594.00 L 989.00 592.00 L 990.00 591.00 L 991.00 588.00 L 993.00 586.00 L 993.00 585.00 L 994.00 584.00 L 994.00 583.00 L 996.00 581.00 L 996.00 580.00 L 1000.00 576.00 L 1000.00 575.00 L 1004.00 571.00 L 1005.00 571.00 L 1010.00 566.00 L 1011.00 566.00 L 1014.00 563.00 L 1015.00 563.00 L 1016.00 562.00 L 1019.00 561.00 L 1021.00 559.00 L 1023.00 559.00 L 1024.00 558.00 L 1025.00 558.00 L 1026.00 557.00 L 1028.00 557.00 L 1031.00 555.00 L 1034.00 555.00 L 1035.00 554.00 L 1039.00 554.00 L 1040.00 553.00 L 1048.00 553.00 Z M 440.00 534.00 L 439.00 535.00 L 433.00 535.00 L 432.00 536.00 L 428.00 536.00 L 427.00 537.00 L 423.00 537.00 L 422.00 538.00 L 420.00 538.00 L 419.00 539.00 L 417.00 539.00 L 416.00 540.00 L 414.00 540.00 L 413.00 541.00 L 412.00 541.00 L 411.00 542.00 L 410.00 542.00 L 409.00 543.00 L 408.00 543.00 L 407.00 544.00 L 406.00 544.00 L 405.00 545.00 L 402.00 546.00 L 400.00 548.00 L 399.00 548.00 L 397.00 550.00 L 396.00 550.00 L 394.00 552.00 L 393.00 552.00 L 388.00 557.00 L 387.00 557.00 L 386.00 558.00 L 386.00 559.00 L 378.00 567.00 L 378.00 568.00 L 375.00 571.00 L 374.00 574.00 L 372.00 576.00 L 372.00 577.00 L 371.00 578.00 L 371.00 579.00 L 370.00 580.00 L 370.00 581.00 L 367.00 586.00 L 367.00 588.00 L 366.00 589.00 L 366.00 591.00 L 365.00 592.00 L 365.00 594.00 L 364.00 595.00 L 364.00 597.00 L 363.00 598.00 L 363.00 601.00 L 362.00 602.00 L 362.00 607.00 L 361.00 608.00 L 361.00 628.00 L 362.00 629.00 L 362.00 635.00 L 363.00 636.00 L 363.00 639.00 L 364.00 640.00 L 364.00 643.00 L 366.00 646.00 L 366.00 648.00 L 368.00 651.00 L 368.00 653.00 L 369.00 654.00 L 369.00 655.00 L 370.00 656.00 L 371.00 659.00 L 373.00 661.00 L 373.00 662.00 L 374.00 663.00 L 374.00 664.00 L 376.00 666.00 L 376.00 667.00 L 380.00 671.00 L 380.00 672.00 L 391.00 683.00 L 392.00 683.00 L 395.00 686.00 L 396.00 686.00 L 401.00 690.00 L 402.00 690.00 L 403.00 691.00 L 404.00 691.00 L 405.00 692.00 L 406.00 692.00 L 407.00 693.00 L 408.00 693.00 L 413.00 696.00 L 415.00 696.00 L 416.00 697.00 L 417.00 697.00 L 418.00 698.00 L 420.00 698.00 L 421.00 699.00 L 424.00 699.00 L 425.00 700.00 L 429.00 700.00 L 430.00 701.00 L 435.00 701.00 L 436.00 702.00 L 457.00 702.00 L 458.00 701.00 L 463.00 701.00 L 464.00 700.00 L 468.00 700.00 L 469.00 699.00 L 472.00 699.00 L 473.00 698.00 L 475.00 698.00 L 478.00 696.00 L 480.00 696.00 L 485.00 693.00 L 487.00 693.00 L 489.00 691.00 L 492.00 690.00 L 494.00 688.00 L 495.00 688.00 L 497.00 686.00 L 498.00 686.00 L 501.00 683.00 L 502.00 683.00 L 513.00 672.00 L 513.00 671.00 L 517.00 667.00 L 517.00 666.00 L 519.00 664.00 L 520.00 661.00 L 522.00 659.00 L 522.00 658.00 L 525.00 653.00 L 525.00 651.00 L 527.00 648.00 L 527.00 646.00 L 528.00 645.00 L 528.00 643.00 L 529.00 642.00 L 529.00 639.00 L 530.00 638.00 L 530.00 634.00 L 531.00 633.00 L 531.00 624.00 L 532.00 623.00 L 532.00 613.00 L 531.00 612.00 L 531.00 604.00 L 530.00 603.00 L 530.00 599.00 L 529.00 598.00 L 529.00 595.00 L 528.00 594.00 L 528.00 592.00 L 527.00 591.00 L 527.00 589.00 L 526.00 588.00 L 526.00 586.00 L 525.00 585.00 L 525.00 584.00 L 524.00 583.00 L 524.00 582.00 L 523.00 581.00 L 523.00 580.00 L 522.00 579.00 L 522.00 578.00 L 521.00 577.00 L 520.00 574.00 L 518.00 572.00 L 518.00 571.00 L 515.00 568.00 L 515.00 567.00 L 509.00 561.00 L 509.00 560.00 L 505.00 556.00 L 504.00 556.00 L 500.00 552.00 L 499.00 552.00 L 496.00 549.00 L 495.00 549.00 L 493.00 547.00 L 492.00 547.00 L 491.00 546.00 L 490.00 546.00 L 488.00 544.00 L 487.00 544.00 L 482.00 541.00 L 480.00 541.00 L 477.00 539.00 L 475.00 539.00 L 474.00 538.00 L 471.00 538.00 L 470.00 537.00 L 467.00 537.00 L 466.00 536.00 L 462.00 536.00 L 461.00 535.00 L 454.00 535.00 L 453.00 534.00 Z M 445.00 552.00 L 449.00 552.00 L 450.00 553.00 L 458.00 553.00 L 459.00 554.00 L 463.00 554.00 L 464.00 555.00 L 466.00 555.00 L 467.00 556.00 L 469.00 556.00 L 470.00 557.00 L 472.00 557.00 L 473.00 558.00 L 474.00 558.00 L 475.00 559.00 L 476.00 559.00 L 477.00 560.00 L 478.00 560.00 L 479.00 561.00 L 482.00 562.00 L 484.00 564.00 L 485.00 564.00 L 489.00 568.00 L 490.00 568.00 L 498.00 576.00 L 498.00 577.00 L 501.00 580.00 L 501.00 581.00 L 503.00 583.00 L 504.00 586.00 L 506.00 588.00 L 506.00 589.00 L 507.00 590.00 L 507.00 592.00 L 509.00 595.00 L 509.00 597.00 L 510.00 598.00 L 510.00 600.00 L 511.00 601.00 L 511.00 605.00 L 512.00 606.00 L 512.00 611.00 L 513.00 612.00 L 513.00 624.00 L 512.00 625.00 L 512.00 631.00 L 511.00 632.00 L 511.00 636.00 L 510.00 637.00 L 510.00 639.00 L 508.00 642.00 L 508.00 644.00 L 507.00 645.00 L 507.00 646.00 L 506.00 647.00 L 506.00 648.00 L 505.00 649.00 L 504.00 652.00 L 502.00 654.00 L 502.00 655.00 L 499.00 658.00 L 499.00 659.00 L 488.00 670.00 L 487.00 670.00 L 484.00 673.00 L 483.00 673.00 L 481.00 675.00 L 480.00 675.00 L 479.00 676.00 L 478.00 676.00 L 473.00 679.00 L 471.00 679.00 L 470.00 680.00 L 468.00 680.00 L 467.00 681.00 L 465.00 681.00 L 464.00 682.00 L 461.00 682.00 L 460.00 683.00 L 454.00 683.00 L 453.00 684.00 L 440.00 684.00 L 439.00 683.00 L 434.00 683.00 L 433.00 682.00 L 429.00 682.00 L 428.00 681.00 L 426.00 681.00 L 425.00 680.00 L 423.00 680.00 L 420.00 678.00 L 418.00 678.00 L 417.00 677.00 L 416.00 677.00 L 415.00 676.00 L 412.00 675.00 L 410.00 673.00 L 409.00 673.00 L 406.00 670.00 L 405.00 670.00 L 393.00 658.00 L 393.00 657.00 L 390.00 654.00 L 390.00 653.00 L 388.00 651.00 L 388.00 650.00 L 385.00 645.00 L 385.00 643.00 L 383.00 640.00 L 383.00 638.00 L 382.00 637.00 L 382.00 634.00 L 381.00 633.00 L 381.00 629.00 L 380.00 628.00 L 380.00 609.00 L 381.00 608.00 L 381.00 604.00 L 382.00 603.00 L 382.00 600.00 L 383.00 599.00 L 383.00 597.00 L 385.00 594.00 L 385.00 592.00 L 386.00 591.00 L 386.00 590.00 L 387.00 589.00 L 388.00 586.00 L 390.00 584.00 L 390.00 583.00 L 392.00 581.00 L 392.00 580.00 L 395.00 577.00 L 395.00 576.00 L 402.00 569.00 L 403.00 569.00 L 407.00 565.00 L 408.00 565.00 L 413.00 561.00 L 414.00 561.00 L 415.00 560.00 L 416.00 560.00 L 421.00 557.00 L 423.00 557.00 L 424.00 556.00 L 426.00 556.00 L 427.00 555.00 L 430.00 555.00 L 431.00 554.00 L 434.00 554.00 L 435.00 553.00 L 444.00 553.00 Z" fill="#FFFFFF" fill-rule="evenodd"/>
</svg>
